<svg width="200" height="48" xmlns="http://www.w3.org/2000/svg" xml:space="preserve" enable-background="new 0 0 1200 595.3" version="1.1">

 <g>
  <title>Layer 1</title>
  <g id="svg_65">
   <g id="svg_1">
    <g id="svg_36">
     <path id="svg_33" d="m15.9,47.3l11.6,0c2.3,0 4.1,-1.8 4.1,-4.1l0,-7.5c0,-2.3 1.8,-4.1 4.1,-4.1l7.5,0c2.3,0 4.1,-1.8 4.1,-4.1l0,-7.7c0,-2.3 -1.8,-4.1 -4.1,-4.1l-7.5,0c-2.3,0 -4.1,-1.8 -4.1,-4.1l0,-7.5c0,-2.3 -1.8,-4.1 -4.1,-4.1l-7.7,0c-2.3,0 -4.1,1.8 -4.1,4.1l0,7.5c0,2.3 -1.8,4.1 -4.1,4.1l-7.5,0c-2.3,0 -4.1,1.8 -4.1,4.1l0,8.4c0,1.9 1.5,3.4 3.4,3.4l0,0" stroke-miterlimit="10" stroke-linecap="round" stroke-width="2" stroke="#2E78BD" fill="none"/>
     <g id="svg_35">
      <path id="svg_34" d="m15.8,47.3c7.9,-6.8 10.7,-11.6 11.6,-14c0.3,-0.8 0.5,-1.6 0.5,-2.5c0,-3.6 -2.9,-6.5 -6.5,-6.5c-2.5,0 -4.6,1.4 -5.7,3.4c-1.1,-2 -3.3,-3.4 -5.7,-3.4c-3.6,0 -6.5,2.9 -6.5,6.5c0,0.2 0,0.5 0,0.7l0,0.1" stroke-miterlimit="10" stroke-linecap="round" stroke-width="2" stroke="#BD3F40" fill="none"/>
     </g>
    </g>
   </g>
   <g id="svg_6">
    <g id="svg_50">
     <path id="svg_38" d="m65.5,31.8c-0.8,0.4 -2.5,0.8 -4.6,0.8c-4.9,0 -8.6,-3.1 -8.6,-8.8c0,-5.5 3.7,-9.2 9.1,-9.2c2.2,0 3.6,0.5 4.2,0.8l-0.5,1.8c-0.9,-0.4 -2.1,-0.7 -3.5,-0.7c-4.1,0 -6.8,2.6 -6.8,7.2c0,4.3 2.5,7 6.7,7c1.4,0 2.8,-0.3 3.7,-0.7l0.3,1.8z" fill="#2E78BD"/>
     <path id="svg_39" d="m67.5,14.9l2.3,0l0,15.6l7.5,0l0,1.9l-9.7,0l0,-17.5l-0.1,0z" fill="#2E78BD"/>
     <path id="svg_40" d="m81.3,14.9l0,17.5l-2.3,0l0,-17.5l2.3,0z" fill="#2E78BD"/>
     <path id="svg_41" d="m84.4,32.4l0,-17.5l2.5,0l5.6,8.8c1.3,2 2.3,3.9 3.1,5.7l0.1,0c-0.2,-2.3 -0.3,-4.5 -0.3,-7.2l0,-7.3l2.1,0l0,17.5l-2.3,0l-5.6,-8.9c-1.2,-1.9 -2.4,-3.9 -3.3,-5.8l-0.1,0c0.1,2.2 0.2,4.3 0.2,7.2l0,7.5l-2,0z" fill="#2E78BD"/>
     <path id="svg_42" d="m103,14.9l0,17.5l-2.3,0l0,-17.5l2.3,0z" fill="#2E78BD"/>
     <path id="svg_43" d="m118.4,31.8c-0.8,0.4 -2.5,0.8 -4.6,0.8c-4.9,0 -8.6,-3.1 -8.6,-8.8c0,-5.5 3.7,-9.2 9.1,-9.2c2.2,0 3.6,0.5 4.2,0.8l-0.5,1.8c-0.9,-0.4 -2.1,-0.7 -3.5,-0.7c-4.1,0 -6.8,2.6 -6.8,7.2c0,4.3 2.5,7 6.7,7c1.4,0 2.8,-0.3 3.7,-0.7l0.3,1.8z" fill="#2E78BD"/>
     <path id="svg_44" d="m123.3,26.9l-1.8,5.5l-2.3,0l5.9,-17.5l2.7,0l6,17.5l-2.4,0l-1.9,-5.5l-6.2,0zm5.8,-1.8l-1.7,-5c-0.4,-1.1 -0.6,-2.2 -0.9,-3.2l-0.1,0c-0.3,1 -0.5,2.1 -0.9,3.2l-1.7,5.1l5.3,0l0,-0.1z" fill="#2E78BD"/>
     <path id="svg_45" d="m135.6,14.9l2.3,0l0,15.6l7.5,0l0,1.9l-9.7,0l0,-17.5l-0.1,0z" fill="#2E78BD"/>
     <path id="svg_46" d="m151.8,14.9l9.4,0l0,1.9l-7.2,0l0,5.8l6.6,0l0,1.9l-6.6,0l0,7.9l-2.3,0l0,-17.5l0.1,0z" fill="#2E78BD"/>
     <path id="svg_47" d="m164.5,26.9l-1.8,5.5l-2.3,0l5.9,-17.5l2.7,0l6,17.5l-2.4,0l-1.9,-5.5l-6.2,0zm5.7,-1.8l-1.7,-5c-0.4,-1.1 -0.6,-2.2 -0.9,-3.2l-0.1,0c-0.3,1 -0.5,2.1 -0.9,3.2l-1.7,5.1l5.3,0l0,-0.1z" fill="#2E78BD"/>
     <path id="svg_48" d="m176.7,14.9l2.3,0l0,8.4l0.1,0c0.5,-0.7 0.9,-1.3 1.4,-1.9l5.3,-6.6l2.8,0l-6.3,7.4l6.8,10.1l-2.7,0l-5.8,-8.6l-1.7,1.9l0,6.7l-2.3,0l0,-17.4l0.1,0z" fill="#2E78BD"/>
     <path id="svg_49" d="m199.1,24.2l-6.8,0l0,6.3l7.6,0l0,1.9l-9.8,0l0,-17.5l9.4,0l0,1.9l-7.2,0l0,5.5l6.8,0l0,1.9z" fill="#2E78BD"/>
    </g>
   </g>
   <g id="svg_20">
    <g id="svg_63">
     <path id="svg_52" d="m58.9,44.7c-0.1,-1 -0.1,-2.3 -0.1,-3.2l0,0c-0.3,0.9 -0.6,1.8 -0.9,2.8l-1.3,3.6l-0.7,0l-1.2,-3.6c-0.4,-1.1 -0.7,-2 -0.9,-2.9l0,0c0,0.9 -0.1,2.2 -0.1,3.3l-0.2,3.2l-1.1,0l0.5,-7.5l1.2,0l1.3,3.6c0.3,0.9 0.6,1.7 0.8,2.5l0,0c0.2,-0.8 0.5,-1.6 0.8,-2.5l1.3,-3.6l1.2,0l0.5,7.5l-0.9,0l-0.2,-3.2z" fill="#BD3F40"/>
     <path id="svg_53" d="m67.6,44.5l-2.9,0l0,2.7l3.2,0l0,0.8l-4.2,0l0,-7.5l4,0l0,0.8l-3.1,0l0,2.4l2.9,0l0,0.8l0.1,0z" fill="#BD3F40"/>
     <path id="svg_54" d="m71.4,40.6c0.6,-0.1 1.3,-0.2 2.1,-0.2c1.4,0 2.4,0.3 3,0.9c0.7,0.6 1.1,1.5 1.1,2.7c0,1.2 -0.4,2.2 -1.1,2.9c-0.7,0.7 -1.9,1.1 -3.3,1.1c-0.7,0 -1.3,0 -1.8,-0.1l0,-7.3zm1,6.6c0.2,0 0.6,0.1 1,0.1c2.1,0 3.2,-1.2 3.2,-3.2c0,-1.8 -1,-2.9 -3,-2.9c-0.5,0 -0.9,0 -1.1,0.1l0,5.9l-0.1,0z" fill="#BD3F40"/>
     <path id="svg_55" d="m81.9,40.5l0,7.5l-1,0l0,-7.5l1,0z" fill="#BD3F40"/>
     <path id="svg_56" d="m91,47.7c-0.4,0.2 -1.1,0.4 -2,0.4c-2.1,0 -3.7,-1.3 -3.7,-3.8c0,-2.3 1.6,-3.9 3.9,-3.9c0.9,0 1.5,0.2 1.8,0.3l-0.2,0.8c-0.4,-0.2 -0.9,-0.3 -1.5,-0.3c-1.8,0 -2.9,1.1 -2.9,3.1c0,1.8 1.1,3 2.9,3c0.6,0 1.2,-0.1 1.6,-0.3l0.1,0.7z" fill="#BD3F40"/>
     <path id="svg_57" d="m95.7,45.6l-0.8,2.4l-1,0l2.5,-7.5l1.2,0l2.6,7.5l-1,0l-0.8,-2.4l-2.7,0zm2.4,-0.7l-0.7,-2.2c-0.2,-0.5 -0.3,-0.9 -0.4,-1.4l0,0c-0.1,0.4 -0.2,0.9 -0.4,1.4l-0.7,2.2l2.2,0z" fill="#BD3F40"/>
     <path id="svg_58" d="m103.4,40.5l1,0l0,6.7l3.2,0l0,0.8l-4.2,0l0,-7.5z" fill="#BD3F40"/>
     <path id="svg_59" d="m120.6,47.7c-0.4,0.2 -1.1,0.4 -2,0.4c-2.1,0 -3.7,-1.3 -3.7,-3.8c0,-2.3 1.6,-3.9 3.9,-3.9c0.9,0 1.5,0.2 1.8,0.3l-0.2,0.8c-0.4,-0.2 -0.9,-0.3 -1.5,-0.3c-1.8,0 -2.9,1.1 -2.9,3.1c0,1.8 1.1,3 2.9,3c0.6,0 1.2,-0.1 1.6,-0.3l0.1,0.7z" fill="#BD3F40"/>
     <path id="svg_60" d="m125.3,45.6l-0.8,2.4l-1,0l2.5,-7.5l1.2,0l2.6,7.5l-1,0l-0.8,-2.4l-2.7,0zm2.4,-0.7l-0.7,-2.2c-0.2,-0.5 -0.3,-0.9 -0.4,-1.4l0,0c-0.1,0.4 -0.2,0.9 -0.4,1.4l-0.7,2.2l2.2,0z" fill="#BD3F40"/>
     <path id="svg_61" d="m133,40.6c0.5,-0.1 1.2,-0.2 1.9,-0.2c1,0 1.7,0.2 2.2,0.6c0.4,0.3 0.6,0.8 0.6,1.4c0,1 -0.6,1.6 -1.4,1.9l0,0c0.6,0.2 0.9,0.7 1.1,1.5c0.2,1 0.4,1.8 0.6,2.1l-1,0c-0.1,-0.2 -0.3,-0.9 -0.5,-1.8c-0.2,-1 -0.6,-1.4 -1.5,-1.5l-0.9,0l0,3.2l-1,0l0,-7.2l-0.1,0zm1,3.4l1,0c1,0 1.7,-0.6 1.7,-1.4c0,-1 -0.7,-1.4 -1.7,-1.4c-0.5,0 -0.8,0 -1,0.1l0,2.7z" fill="#BD3F40"/>
     <path id="svg_62" d="m145,44.5l-2.9,0l0,2.7l3.2,0l0,0.8l-4.2,0l0,-7.5l4,0l0,0.8l-3.1,0l0,2.4l2.9,0l0,0.8l0.1,0z" fill="#BD3F40"/>
    </g>
   </g>
  </g>
 </g>
</svg>