<svg width="298" height="170" xmlns="http://www.w3.org/2000/svg" xml:space="preserve" enable-background="new 0 0 1200 595.3" version="1.1">

 <g>
  <title>Layer 1</title>
  <g id="svg_33">
   <g id="svg_1">
    <g id="svg_2">
     <path id="svg_3" d="m132.5,95.3l23.4,0c4.6,0 8.3,-3.7 8.3,-8.3l0,-15c0,-4.6 3.7,-8.3 8.3,-8.3l15,0c4.6,0 8.3,-3.7 8.3,-8.3l0,-15.5c0,-4.6 -3.7,-8.3 -8.3,-8.3l-15,0c-4.6,0 -8.3,-3.7 -8.3,-8.3l0,-15c0,-4.6 -3.7,-8.3 -8.3,-8.3l-15.5,0c-4.6,0 -8.3,3.7 -8.3,8.3l0,15c0,4.6 -3.7,8.3 -8.3,8.3l-15,0c-4.6,0 -8.3,3.7 -8.3,8.3l0,16.9c0,3.8 3.1,6.9 6.9,6.9l0,0" stroke-miterlimit="10" stroke-linecap="round" stroke-width="2" stroke="#2E78BD" fill="none"/>
     <g id="svg_4">
      <path id="svg_5" d="m132.4,95.4c16,-13.7 21.7,-23.4 23.4,-28.2c0.7,-1.6 1,-3.3 1,-5.1c0,-7.3 -5.9,-13.2 -13.2,-13.2c-5,0 -9.3,2.8 -11.6,6.9c-2.2,-4.1 -6.6,-6.9 -11.6,-6.9c-7.3,0 -13.2,5.9 -13.2,13.2c0,0.5 0,0.9 0.1,1.4l0,0.2" stroke-miterlimit="10" stroke-linecap="round" stroke-width="2" stroke="#BD3F40" fill="none"/>
     </g>
    </g>
   </g>
   <g id="svg_6">
    <g id="svg_7">
     <path id="svg_8" d="m26.7,137.3c-1.7,0.8 -5,1.7 -9.3,1.7c-9.9,0 -17.4,-6.3 -17.4,-17.8c0,-11 7.5,-18.5 18.4,-18.5c4.4,0 7.2,0.9 8.4,1.6l-1.1,3.7c-1.7,-0.8 -4.2,-1.5 -7.1,-1.5c-8.3,0 -13.8,5.3 -13.8,14.5c0,8.6 5,14.2 13.6,14.2c2.8,0 5.6,-0.6 7.4,-1.5l0.9,3.6z" fill="#2E78BD"/>
     <path id="svg_9" d="m30.9,103.2l4.6,0l0,31.4l15.1,0l0,3.8l-19.6,0l0,-35.2l-0.1,0z" fill="#2E78BD"/>
     <path id="svg_10" d="m58.5,103.2l0,35.3l-4.6,0l0,-35.3l4.6,0z" fill="#2E78BD"/>
     <path id="svg_11" d="m64.9,138.5l0,-35.3l5,0l11.3,17.8c2.6,4.1 4.7,7.8 6.3,11.5l0.1,-0.1c-0.4,-4.7 -0.5,-9 -0.5,-14.5l0,-14.8l4.3,0l0,35.3l-4.6,0l-11.2,-17.8c-2.5,-3.9 -4.8,-8 -6.6,-11.8l-0.2,0.1c0.3,4.4 0.4,8.7 0.4,14.5l0,15.1l-4.3,0z" fill="#2E78BD"/>
     <path id="svg_12" d="m102.3,103.2l0,35.3l-4.6,0l0,-35.3l4.6,0z" fill="#2E78BD"/>
     <path id="svg_13" d="m133.4,137.3c-1.7,0.8 -5,1.7 -9.3,1.7c-9.9,0 -17.4,-6.3 -17.4,-17.8c0,-11 7.5,-18.5 18.4,-18.5c4.4,0 7.2,0.9 8.4,1.6l-1.1,3.7c-1.7,-0.8 -4.2,-1.5 -7.1,-1.5c-8.3,0 -13.8,5.3 -13.8,14.5c0,8.6 5,14.2 13.6,14.2c2.8,0 5.6,-0.6 7.4,-1.5l0.9,3.6z" fill="#2E78BD"/>
     <path id="svg_14" d="m143.4,127.4l-3.7,11.1l-4.7,0l12,-35.3l5.5,0l12,35.3l-4.9,0l-3.8,-11.1l-12.4,0zm11.6,-3.6l-3.5,-10.2c-0.8,-2.3 -1.3,-4.4 -1.8,-6.4l-0.1,0c-0.5,2.1 -1.1,4.2 -1.8,6.4l-3.5,10.2l10.7,0z" fill="#2E78BD"/>
     <path id="svg_15" d="m168.2,103.2l4.6,0l0,31.4l15.1,0l0,3.8l-19.6,0l0,-35.2l-0.1,0z" fill="#2E78BD"/>
     <path id="svg_16" d="m200.8,103.2l19,0l0,3.8l-14.4,0l0,11.7l13.3,0l0,3.8l-13.3,0l0,16l-4.6,0l0,-35.3z" fill="#2E78BD"/>
     <path id="svg_17" d="m226.4,127.4l-3.7,11.1l-4.7,0l12,-35.3l5.5,0l12,35.3l-4.9,0l-3.8,-11.1l-12.4,0zm11.5,-3.6l-3.5,-10.2c-0.8,-2.3 -1.3,-4.4 -1.8,-6.4l-0.1,0c-0.5,2.1 -1.1,4.2 -1.8,6.4l-3.5,10.2l10.7,0z" fill="#2E78BD"/>
     <path id="svg_18" d="m251.1,103.2l4.6,0l0,17l0.2,0c0.9,-1.4 1.9,-2.6 2.8,-3.8l10.8,-13.2l5.7,0l-12.8,15l13.8,20.3l-5.4,0l-11.6,-17.3l-3.3,3.9l0,13.4l-4.8,0l0,-35.3z" fill="#2E78BD"/>
     <path id="svg_19" d="m296.2,121.9l-13.7,0l0,12.7l15.3,0l0,3.8l-19.8,0l0,-35.3l19,0l0,3.8l-14.5,0l0,11.1l13.7,0l0,3.9z" fill="#2E78BD"/>
    </g>
   </g>
   <g id="svg_20">
    <g id="svg_21">
     <path id="svg_22" d="m65.5,162.9c-0.1,-2.1 -0.2,-4.6 -0.2,-6.5l-0.1,0c-0.5,1.8 -1.1,3.6 -1.9,5.7l-2.7,7.3l-1.5,0l-2.4,-7.2c-0.7,-2.1 -1.3,-4.1 -1.7,-5.9l0,0c0,1.9 -0.2,4.4 -0.3,6.7l-0.4,6.5l-1.9,0l1.1,-15.1l2.5,0l2.6,7.3c0.6,1.9 1.1,3.5 1.5,5.1l0.1,0c0.4,-1.5 0.9,-3.2 1.6,-5.1l2.7,-7.3l2.5,0l0.9,15.1l-1.9,0l-0.5,-6.6z" fill="#BD3F40"/>
     <path id="svg_23" d="m83,162.5l-5.9,0l0,5.4l6.5,0l0,1.6l-8.5,0l0,-15.1l8.1,0l0,1.6l-6.1,0l0,4.8l5.9,0l0,1.7z" fill="#BD3F40"/>
     <path id="svg_24" d="m90.6,154.7c1.2,-0.2 2.6,-0.3 4.1,-0.3c2.8,0 4.8,0.6 6.1,1.9c1.3,1.2 2.1,3 2.1,5.4c0,2.5 -0.8,4.5 -2.2,5.9c-1.4,1.4 -3.7,2.2 -6.7,2.2c-1.4,0 -2.6,-0.1 -3.5,-0.2l0,-14.9l0.1,0zm2,13.3c0.5,0.1 1.2,0.1 2,0.1c4.2,0 6.4,-2.3 6.4,-6.4c0,-3.6 -2,-5.8 -6.1,-5.8c-1,0 -1.8,0.1 -2.3,0.2l0,11.9z" fill="#BD3F40"/>
     <path id="svg_25" d="m111.9,154.5l0,15.1l-1.9,0l0,-15.1l1.9,0z" fill="#BD3F40"/>
     <path id="svg_26" d="m130.2,169.1c-0.7,0.4 -2.1,0.7 -4,0.7c-4.3,0 -7.4,-2.7 -7.4,-7.6c0,-4.7 3.2,-7.9 7.9,-7.9c1.9,0 3.1,0.4 3.6,0.7l-0.5,1.6c-0.7,-0.4 -1.8,-0.6 -3,-0.6c-3.5,0 -5.9,2.3 -5.9,6.2c0,3.7 2.1,6.1 5.8,6.1c1.2,0 2.4,-0.2 3.2,-0.6l0.3,1.4z" fill="#BD3F40"/>
     <path id="svg_27" d="m139.6,164.8l-1.6,4.7l-2,0l5.1,-15.1l2.3,0l5.1,15.1l-2.1,0l-1.6,-4.7l-5.2,0zm4.9,-1.5l-1.5,-4.3c-0.3,-1 -0.6,-1.9 -0.8,-2.8l0,0c-0.2,0.9 -0.5,1.8 -0.8,2.7l-1.5,4.4l4.6,0z" fill="#BD3F40"/>
     <path id="svg_28" d="m155.2,154.5l1.9,0l0,13.4l6.4,0l0,1.6l-8.4,0l0,-15l0.1,0z" fill="#BD3F40"/>
     <path id="svg_29" d="m189.9,169.1c-0.7,0.4 -2.1,0.7 -4,0.7c-4.3,0 -7.4,-2.7 -7.4,-7.6c0,-4.7 3.2,-7.9 7.9,-7.9c1.9,0 3.1,0.4 3.6,0.7l-0.5,1.6c-0.7,-0.4 -1.8,-0.6 -3,-0.6c-3.5,0 -5.9,2.3 -5.9,6.2c0,3.7 2.1,6.1 5.8,6.1c1.2,0 2.4,-0.2 3.2,-0.6l0.3,1.4z" fill="#BD3F40"/>
     <path id="svg_30" d="m199.3,164.8l-1.6,4.7l-2,0l5.1,-15.1l2.3,0l5.1,15.1l-2.1,0l-1.6,-4.7l-5.2,0zm4.9,-1.5l-1.5,-4.3c-0.3,-1 -0.6,-1.9 -0.8,-2.8l0,0c-0.2,0.9 -0.5,1.8 -0.8,2.7l-1.5,4.4l4.6,0z" fill="#BD3F40"/>
     <path id="svg_31" d="m214.9,154.7c1,-0.2 2.4,-0.3 3.7,-0.3c2.1,0 3.4,0.4 4.4,1.2c0.8,0.7 1.2,1.7 1.2,2.9c0,2 -1.3,3.3 -2.8,3.8l0,0.1c1.2,0.4 1.9,1.5 2.2,3c0.5,2.1 0.8,3.6 1.2,4.1l-2,0c-0.2,-0.4 -0.6,-1.7 -1,-3.6c-0.4,-2.1 -1.3,-2.9 -3,-2.9l-1.8,0l0,6.5l-1.9,0l0,-14.8l-0.2,0zm2,6.8l2,0c2.1,0 3.4,-1.1 3.4,-2.9c0,-1.9 -1.4,-2.8 -3.5,-2.8c-0.9,0 -1.6,0.1 -1.9,0.2l0,5.5z" fill="#BD3F40"/>
     <path id="svg_32" d="m239.2,162.5l-5.9,0l0,5.4l6.5,0l0,1.6l-8.5,0l0,-15.1l8.1,0l0,1.6l-6.2,0l0,4.8l5.9,0l0,1.7l0.1,0z" fill="#BD3F40"/>
    </g>
   </g>
  </g>
 </g>
</svg>