<svg width="199" height="113" xmlns="http://www.w3.org/2000/svg" version="1.1" enable-background="new 0 0 1200 595.3" xml:space="preserve">
 <g>
  <title>Layer 1</title>
  <g stroke="null" id="svg_33">
   <g stroke="null" id="svg_1">
    <g stroke="null" id="svg_2">
     <path stroke="#2E78BD" fill="none" stroke-width="2" stroke-linecap="round" stroke-miterlimit="10" d="m88.7824,63.69859l15.1495,0c2.97811,0 5.37354,-2.39543 5.37354,-5.37354l0,-9.71122c0,-2.97811 2.39543,-5.37354 5.37354,-5.37354l9.71122,0c2.97811,0 5.37354,-2.39543 5.37354,-5.37354l0,-10.03492c0,-2.97811 -2.39543,-5.37354 -5.37354,-5.37354l-9.71122,0c-2.97811,0 -5.37354,-2.39543 -5.37354,-5.37354l0,-9.71122c0,-2.97811 -2.39543,-5.37354 -5.37354,-5.37354l-10.03492,0c-2.97811,0 -5.37354,2.39543 -5.37354,5.37354l0,9.71122c0,2.97811 -2.39543,5.37354 -5.37354,5.37354l-9.71122,0c-2.97811,0 -5.37354,2.39543 -5.37354,5.37354l0,10.9413c0,2.46017 2.00698,4.46716 4.46716,4.46716l0,0" id="svg_3"/>
     <g stroke="null" id="svg_4">
      <path stroke="#BD3F40" fill="none" stroke-width="2" stroke-linecap="round" stroke-miterlimit="10" d="m88.71766,63.76333c10.35863,-8.86958 14.04889,-15.1495 15.1495,-18.25708c0.45319,-1.03586 0.64741,-2.13647 0.64741,-3.30181c0,-4.72612 -3.81974,-8.54587 -8.54587,-8.54587c-3.23707,0 -6.02095,1.81276 -7.51001,4.46716c-1.42431,-2.6544 -4.27293,-4.46716 -7.51001,-4.46716c-4.72612,0 -8.54587,3.81974 -8.54587,8.54587c0,0.32371 0,0.58267 0.06474,0.90638l0,0.12948" id="svg_5"/>
     </g>
    </g>
   </g>
   <g stroke="null" id="svg_6">
    <g stroke="null" id="svg_7">
     <path stroke="null" fill="#2E78BD" d="m20.28596,90.88999c-1.1006,0.51793 -3.23707,1.1006 -6.02095,1.1006c-6.4094,0 -11.26501,-4.07871 -11.26501,-11.52398c0,-7.12156 4.85561,-11.97717 11.91242,-11.97717c2.84862,0 4.66138,0.58267 5.43828,1.03586l-0.71216,2.39543c-1.1006,-0.51793 -2.71914,-0.97112 -4.59664,-0.97112c-5.37354,0 -8.93432,3.4313 -8.93432,9.38751c0,5.56776 3.23707,9.19328 8.80484,9.19328c1.81276,0 3.62552,-0.38845 4.79087,-0.97112l0.58267,2.33069z" id="svg_8"/>
     <path stroke="null" fill="#2E78BD" d="m23.0051,68.81316l2.97811,0l0,20.32881l9.77596,0l0,2.46017l-12.68932,0l0,-22.78899l-0.06474,0z" id="svg_9"/>
     <path stroke="null" fill="#2E78BD" d="m40.87374,68.81316l0,22.85373l-2.97811,0l0,-22.85373l2.97811,0z" id="svg_10"/>
     <path stroke="null" fill="#2E78BD" d="m45.01719,91.66689l0,-22.85373l3.23707,0l7.31578,11.52398c1.68328,2.6544 3.04285,5.04983 4.07871,7.44527l0.06474,-0.06474c-0.25897,-3.04285 -0.32371,-5.82673 -0.32371,-9.38751l0,-9.58173l2.78388,0l0,22.85373l-2.97811,0l-7.25104,-11.52398c-1.61854,-2.52492 -3.10759,-5.17931 -4.27293,-7.63949l-0.12948,0.06474c0.19422,2.84862 0.25897,5.6325 0.25897,9.38751l0,9.77596l-2.78388,0z" id="svg_11"/>
     <path stroke="null" fill="#2E78BD" d="m69.23049,68.81316l0,22.85373l-2.97811,0l0,-22.85373l2.97811,0z" id="svg_12"/>
     <path stroke="null" fill="#2E78BD" d="m89.36508,90.88999c-1.1006,0.51793 -3.23707,1.1006 -6.02095,1.1006c-6.4094,0 -11.26501,-4.07871 -11.26501,-11.52398c0,-7.12156 4.85561,-11.97717 11.91242,-11.97717c2.84862,0 4.66138,0.58267 5.43828,1.03586l-0.71216,2.39543c-1.1006,-0.51793 -2.71914,-0.97112 -4.59664,-0.97112c-5.37354,0 -8.93432,3.4313 -8.93432,9.38751c0,5.56776 3.23707,9.19328 8.80484,9.19328c1.81276,0 3.62552,-0.38845 4.79087,-0.97112l0.58267,2.33069z" id="svg_13"/>
     <path stroke="null" fill="#2E78BD" d="m95.83922,84.48059l-2.39543,7.1863l-3.04285,0l7.76897,-22.85373l3.56078,0l7.76897,22.85373l-3.17233,0l-2.46017,-7.1863l-8.02794,0zm7.51001,-2.33069l-2.26595,-6.60363c-0.51793,-1.48905 -0.84164,-2.84862 -1.16535,-4.14345l-0.06474,0c-0.32371,1.35957 -0.71216,2.71914 -1.16535,4.14345l-2.26595,6.60363l6.92733,0z" id="svg_14"/>
     <path stroke="null" fill="#2E78BD" d="m111.8951,68.81316l2.97811,0l0,20.32881l9.77596,0l0,2.46017l-12.68932,0l0,-22.78899l-0.06474,0z" id="svg_15"/>
     <path stroke="null" fill="#2E78BD" d="m133.0008,68.81316l12.30087,0l0,2.46017l-9.32277,0l0,7.57475l8.61061,0l0,2.46017l-8.61061,0l0,10.35863l-2.97811,0l0,-22.85373z" id="svg_16"/>
     <path stroke="null" fill="#2E78BD" d="m149.57461,84.48059l-2.39543,7.1863l-3.04285,0l7.76897,-22.85373l3.56078,0l7.76897,22.85373l-3.17233,0l-2.46017,-7.1863l-8.02794,0zm7.44527,-2.33069l-2.26595,-6.60363c-0.51793,-1.48905 -0.84164,-2.84862 -1.16535,-4.14345l-0.06474,0c-0.32371,1.35957 -0.71216,2.71914 -1.16535,4.14345l-2.26595,6.60363l6.92733,0z" id="svg_17"/>
     <path stroke="null" fill="#2E78BD" d="m165.56575,68.81316l2.97811,0l0,11.00604l0.12948,0c0.58267,-0.90638 1.23009,-1.68328 1.81276,-2.46017l6.99208,-8.54587l3.69026,0l-8.2869,9.71122l8.93432,13.14251l-3.49604,0l-7.51001,-11.20027l-2.13647,2.52492l0,8.67535l-3.10759,0l0,-22.85373z" id="svg_18"/>
     <path stroke="null" fill="#2E78BD" d="m194.76413,80.91981l-8.86958,0l0,8.22216l9.90544,0l0,2.46017l-12.8188,0l0,-22.85373l12.30087,0l0,2.46017l-9.38751,0l0,7.1863l8.86958,0l0,2.52492z" id="svg_19"/>
    </g>
   </g>
   <g stroke="null" id="svg_20">
    <g stroke="null" id="svg_21">
     <path stroke="null" fill="#BD3F40" d="m45.40564,107.4638c-0.06474,-1.35957 -0.12948,-2.97811 -0.12948,-4.20819l-0.06474,0c-0.32371,1.16535 -0.71216,2.33069 -1.23009,3.69026l-1.74802,4.72612l-0.97112,0l-1.55379,-4.66138c-0.45319,-1.35957 -0.84164,-2.6544 -1.1006,-3.81974l0,0c0,1.23009 -0.12948,2.84862 -0.19422,4.33768l-0.25897,4.20819l-1.23009,0l0.71216,-9.77596l1.61854,0l1.68328,4.72612c0.38845,1.23009 0.71216,2.26595 0.97112,3.30181l0.06474,0c0.25897,-0.97112 0.58267,-2.07173 1.03586,-3.30181l1.74802,-4.72612l1.61854,0l0.58267,9.77596l-1.23009,0l-0.32371,-4.27293z" id="svg_22"/>
     <path stroke="null" fill="#BD3F40" d="m56.73539,107.20483l-3.81974,0l0,3.49604l4.20819,0l0,1.03586l-5.50302,0l0,-9.77596l5.24406,0l0,1.03586l-3.94923,0l0,3.10759l3.81974,0l0,1.1006z" id="svg_23"/>
     <path stroke="null" fill="#BD3F40" d="m61.65574,102.155c0.7769,-0.12948 1.68328,-0.19422 2.6544,-0.19422c1.81276,0 3.10759,0.38845 3.94923,1.23009c0.84164,0.7769 1.35957,1.94224 1.35957,3.49604c0,1.61854 -0.51793,2.91336 -1.42431,3.81974c-0.90638,0.90638 -2.39543,1.42431 -4.33768,1.42431c-0.90638,0 -1.68328,-0.06474 -2.26595,-0.12948l0,-9.64647l0.06474,0zm1.29483,8.61061c0.32371,0.06474 0.7769,0.06474 1.29483,0.06474c2.71914,0 4.14345,-1.48905 4.14345,-4.14345c0,-2.33069 -1.29483,-3.755 -3.94923,-3.755c-0.64741,0 -1.16535,0.06474 -1.48905,0.12948l0,7.70423z" id="svg_24"/>
     <path stroke="null" fill="#BD3F40" d="m75.44567,102.02552l0,9.77596l-1.23009,0l0,-9.77596l1.23009,0z" id="svg_25"/>
     <path stroke="null" fill="#BD3F40" d="m87.29335,111.47777c-0.45319,0.25897 -1.35957,0.45319 -2.58966,0.45319c-2.78388,0 -4.79087,-1.74802 -4.79087,-4.92035c0,-3.04285 2.07173,-5.11457 5.11457,-5.11457c1.23009,0 2.00698,0.25897 2.33069,0.45319l-0.32371,1.03586c-0.45319,-0.25897 -1.16535,-0.38845 -1.94224,-0.38845c-2.26595,0 -3.81974,1.48905 -3.81974,4.01397c0,2.39543 1.35957,3.94923 3.755,3.94923c0.7769,0 1.55379,-0.12948 2.07173,-0.38845l0.19422,0.90638z" id="svg_26"/>
     <path stroke="null" fill="#BD3F40" d="m93.37904,108.69389l-1.03586,3.04285l-1.29483,0l3.30181,-9.77596l1.48905,0l3.30181,9.77596l-1.35957,0l-1.03586,-3.04285l-3.36655,0zm3.17233,-0.97112l-0.97112,-2.78388c-0.19422,-0.64741 -0.38845,-1.23009 -0.51793,-1.81276l0,0c-0.12948,0.58267 -0.32371,1.16535 -0.51793,1.74802l-0.97112,2.84862l2.97811,0z" id="svg_27"/>
     <path stroke="null" fill="#BD3F40" d="m103.47871,102.02552l1.23009,0l0,8.67535l4.14345,0l0,1.03586l-5.43828,0l0,-9.71122l0.06474,0z" id="svg_28"/>
     <path stroke="null" fill="#BD3F40" d="m125.94399,111.47777c-0.45319,0.25897 -1.35957,0.45319 -2.58966,0.45319c-2.78388,0 -4.79087,-1.74802 -4.79087,-4.92035c0,-3.04285 2.07173,-5.11457 5.11457,-5.11457c1.23009,0 2.00698,0.25897 2.33069,0.45319l-0.32371,1.03586c-0.45319,-0.25897 -1.16535,-0.38845 -1.94224,-0.38845c-2.26595,0 -3.81974,1.48905 -3.81974,4.01397c0,2.39543 1.35957,3.94923 3.755,3.94923c0.7769,0 1.55379,-0.12948 2.07173,-0.38845l0.19422,0.90638z" id="svg_29"/>
     <path stroke="null" fill="#BD3F40" d="m132.02968,108.69389l-1.03586,3.04285l-1.29483,0l3.30181,-9.77596l1.48905,0l3.30181,9.77596l-1.35957,0l-1.03586,-3.04285l-3.36655,0zm3.17233,-0.97112l-0.97112,-2.78388c-0.19422,-0.64741 -0.38845,-1.23009 -0.51793,-1.81276l0,0c-0.12948,0.58267 -0.32371,1.16535 -0.51793,1.74802l-0.97112,2.84862l2.97811,0z" id="svg_30"/>
     <path stroke="null" fill="#BD3F40" d="m142.12935,102.155c0.64741,-0.12948 1.55379,-0.19422 2.39543,-0.19422c1.35957,0 2.20121,0.25897 2.84862,0.7769c0.51793,0.45319 0.7769,1.1006 0.7769,1.8775c0,1.29483 -0.84164,2.13647 -1.81276,2.46017l0,0.06474c0.7769,0.25897 1.23009,0.97112 1.42431,1.94224c0.32371,1.35957 0.51793,2.33069 0.7769,2.6544l-1.29483,0c-0.12948,-0.25897 -0.38845,-1.1006 -0.64741,-2.33069c-0.25897,-1.35957 -0.84164,-1.8775 -1.94224,-1.8775l-1.16535,0l0,4.20819l-1.23009,0l0,-9.58173l-0.12948,0zm1.29483,4.40242l1.29483,0c1.35957,0 2.20121,-0.71216 2.20121,-1.8775c0,-1.23009 -0.90638,-1.81276 -2.26595,-1.81276c-0.58267,0 -1.03586,0.06474 -1.23009,0.12948l0,3.56078z" id="svg_31"/>
     <path stroke="null" fill="#BD3F40" d="m157.86152,107.20483l-3.81974,0l0,3.49604l4.20819,0l0,1.03586l-5.50302,0l0,-9.77596l5.24406,0l0,1.03586l-4.01397,0l0,3.10759l3.81974,0l0,1.1006l0.06474,0z" id="svg_32"/>
    </g>
   </g>
  </g>
 </g>

</svg>