<svg width="35" height="35" xmlns="http://www.w3.org/2000/svg" version="1.1" enable-background="new 0 0 1200 595.3" xml:space="preserve">
 <g>
  <title>Layer 1</title>
  <g stroke="null" id="svg_65">
   <g stroke="null" id="svg_66">
    <path stroke="#2E78BD" fill="none" stroke-width="2" stroke-linecap="round" stroke-miterlimit="10" d="m11.76878,34.93169l8.56936,0c1.68458,0 3.03956,-1.35498 3.03956,-3.03956l0,-5.49318c0,-1.68458 1.35498,-3.03956 3.03956,-3.03956l5.49318,0c1.68458,0 3.03956,-1.35498 3.03956,-3.03956l0,-5.67629c0,-1.68458 -1.35498,-3.03956 -3.03956,-3.03956l-5.49318,0c-1.68458,0 -3.03956,-1.35498 -3.03956,-3.03956l0,-5.49318c0,-1.68458 -1.35498,-3.03956 -3.03956,-3.03956l-5.67629,0c-1.68458,0 -3.03956,1.35498 -3.03956,3.03956l0,5.49318c0,1.68458 -1.35498,3.03956 -3.03956,3.03956l-5.49318,0c-1.68458,0 -3.03956,1.35498 -3.03956,3.03956l0,6.18898c0,1.39161 1.13526,2.52686 2.52686,2.52686l0,0" id="svg_67"/>
    <g stroke="null" id="svg_68">
     <path stroke="#BD3F40" fill="none" stroke-width="2" stroke-linecap="round" stroke-miterlimit="10" d="m11.73216,34.96831c5.85939,-5.0171 7.9468,-8.56936 8.56936,-10.32718c0.25635,-0.58594 0.36621,-1.2085 0.36621,-1.86768c0,-2.67335 -2.16065,-4.834 -4.834,-4.834c-1.83106,0 -3.40577,1.02539 -4.24806,2.52686c-0.80567,-1.50147 -2.417,-2.52686 -4.24806,-2.52686c-2.67335,0 -4.834,2.16065 -4.834,4.834c0,0.18311 0,0.32959 0.03662,0.5127l0,0.07324" id="svg_69"/>
    </g>
   </g>
  </g>
 </g>

</svg>